<mxfile host="app.diagrams.net" agent="Mozilla/5.0 (Windows NT 10.0; Win64; x64) AppleWebKit/537.36 (KHTML, like Gecko) Chrome/128.0.0.0 Safari/537.36" version="24.7.8">
  <diagram name="P치gina-1" id="hAtI3kErOpThjdHTuU-3">
    <mxGraphModel dx="1114" dy="434" grid="1" gridSize="10" guides="1" tooltips="1" connect="1" arrows="1" fold="1" page="1" pageScale="1" pageWidth="827" pageHeight="1169" math="0" shadow="0">
      <root>
        <mxCell id="0" />
        <mxCell id="1" parent="0" />
        <mxCell id="yfiybu5PQQee1E7e1q2P-1" value="Clientes" style="rounded=1;whiteSpace=wrap;html=1;" vertex="1" parent="1">
          <mxGeometry x="80" y="100" width="120" height="60" as="geometry" />
        </mxCell>
        <mxCell id="yfiybu5PQQee1E7e1q2P-3" value="Producto" style="rounded=1;whiteSpace=wrap;html=1;" vertex="1" parent="1">
          <mxGeometry x="610" y="100" width="120" height="60" as="geometry" />
        </mxCell>
        <mxCell id="yfiybu5PQQee1E7e1q2P-4" value="Proveedor" style="rounded=1;whiteSpace=wrap;html=1;" vertex="1" parent="1">
          <mxGeometry x="330" y="330" width="120" height="60" as="geometry" />
        </mxCell>
        <mxCell id="yfiybu5PQQee1E7e1q2P-8" value="&lt;u&gt;Dni&lt;/u&gt;" style="ellipse;whiteSpace=wrap;html=1;" vertex="1" parent="1">
          <mxGeometry x="20" width="90" height="60" as="geometry" />
        </mxCell>
        <mxCell id="yfiybu5PQQee1E7e1q2P-9" value="Apellido" style="ellipse;whiteSpace=wrap;html=1;" vertex="1" parent="1">
          <mxGeometry x="120" y="230" width="90" height="60" as="geometry" />
        </mxCell>
        <mxCell id="yfiybu5PQQee1E7e1q2P-10" value="Nombre" style="ellipse;whiteSpace=wrap;html=1;" vertex="1" parent="1">
          <mxGeometry x="20" y="230" width="90" height="60" as="geometry" />
        </mxCell>
        <mxCell id="yfiybu5PQQee1E7e1q2P-11" value="Direcci칩n" style="ellipse;whiteSpace=wrap;html=1;" vertex="1" parent="1">
          <mxGeometry x="150" width="90" height="60" as="geometry" />
        </mxCell>
        <mxCell id="yfiybu5PQQee1E7e1q2P-12" value="Fecha de nacimiento" style="ellipse;whiteSpace=wrap;html=1;" vertex="1" parent="1">
          <mxGeometry x="220" y="230" width="90" height="60" as="geometry" />
        </mxCell>
        <mxCell id="yfiybu5PQQee1E7e1q2P-13" value="" style="endArrow=none;html=1;rounded=0;entryX=0.25;entryY=1;entryDx=0;entryDy=0;" edge="1" parent="1" target="yfiybu5PQQee1E7e1q2P-1">
          <mxGeometry width="50" height="50" relative="1" as="geometry">
            <mxPoint x="60" y="230" as="sourcePoint" />
            <mxPoint x="110" y="180" as="targetPoint" />
          </mxGeometry>
        </mxCell>
        <mxCell id="yfiybu5PQQee1E7e1q2P-15" value="" style="endArrow=none;html=1;rounded=0;entryX=0.608;entryY=0.983;entryDx=0;entryDy=0;entryPerimeter=0;" edge="1" parent="1" target="yfiybu5PQQee1E7e1q2P-1">
          <mxGeometry width="50" height="50" relative="1" as="geometry">
            <mxPoint x="150" y="230" as="sourcePoint" />
            <mxPoint x="200" y="180" as="targetPoint" />
          </mxGeometry>
        </mxCell>
        <mxCell id="yfiybu5PQQee1E7e1q2P-16" value="" style="endArrow=none;html=1;rounded=0;entryX=0.833;entryY=1;entryDx=0;entryDy=0;entryPerimeter=0;" edge="1" parent="1" target="yfiybu5PQQee1E7e1q2P-1">
          <mxGeometry width="50" height="50" relative="1" as="geometry">
            <mxPoint x="230" y="240" as="sourcePoint" />
            <mxPoint x="170" y="180" as="targetPoint" />
          </mxGeometry>
        </mxCell>
        <mxCell id="yfiybu5PQQee1E7e1q2P-17" value="" style="endArrow=none;html=1;rounded=0;entryX=0.611;entryY=1.033;entryDx=0;entryDy=0;entryPerimeter=0;" edge="1" parent="1" target="yfiybu5PQQee1E7e1q2P-8">
          <mxGeometry width="50" height="50" relative="1" as="geometry">
            <mxPoint x="90" y="100" as="sourcePoint" />
            <mxPoint x="140" y="50" as="targetPoint" />
          </mxGeometry>
        </mxCell>
        <mxCell id="yfiybu5PQQee1E7e1q2P-19" value="" style="endArrow=none;html=1;rounded=0;" edge="1" parent="1">
          <mxGeometry width="50" height="50" relative="1" as="geometry">
            <mxPoint x="150" y="100" as="sourcePoint" />
            <mxPoint x="190" y="60" as="targetPoint" />
          </mxGeometry>
        </mxCell>
        <mxCell id="yfiybu5PQQee1E7e1q2P-20" value="&lt;u&gt;C칩digo&lt;/u&gt;" style="ellipse;whiteSpace=wrap;html=1;" vertex="1" parent="1">
          <mxGeometry x="660" y="230" width="90" height="60" as="geometry" />
        </mxCell>
        <mxCell id="yfiybu5PQQee1E7e1q2P-21" value="Nombre" style="ellipse;whiteSpace=wrap;html=1;" vertex="1" parent="1">
          <mxGeometry x="550" y="230" width="90" height="60" as="geometry" />
        </mxCell>
        <mxCell id="yfiybu5PQQee1E7e1q2P-22" value="Precio unitario" style="ellipse;whiteSpace=wrap;html=1;" vertex="1" parent="1">
          <mxGeometry x="760" y="230" width="90" height="60" as="geometry" />
        </mxCell>
        <mxCell id="yfiybu5PQQee1E7e1q2P-23" value="" style="endArrow=none;html=1;rounded=0;entryX=0.25;entryY=1;entryDx=0;entryDy=0;exitX=0.7;exitY=0.083;exitDx=0;exitDy=0;exitPerimeter=0;" edge="1" parent="1" source="yfiybu5PQQee1E7e1q2P-21">
          <mxGeometry width="50" height="50" relative="1" as="geometry">
            <mxPoint x="590" y="230" as="sourcePoint" />
            <mxPoint x="640" y="160" as="targetPoint" />
          </mxGeometry>
        </mxCell>
        <mxCell id="yfiybu5PQQee1E7e1q2P-24" value="" style="endArrow=none;html=1;rounded=0;entryX=0.833;entryY=1;entryDx=0;entryDy=0;entryPerimeter=0;" edge="1" parent="1">
          <mxGeometry width="50" height="50" relative="1" as="geometry">
            <mxPoint x="770" y="240" as="sourcePoint" />
            <mxPoint x="720" y="160" as="targetPoint" />
          </mxGeometry>
        </mxCell>
        <mxCell id="yfiybu5PQQee1E7e1q2P-25" value="Compra" style="rhombus;whiteSpace=wrap;html=1;" vertex="1" parent="1">
          <mxGeometry x="320" y="80" width="80" height="80" as="geometry" />
        </mxCell>
        <mxCell id="yfiybu5PQQee1E7e1q2P-27" value="" style="endArrow=none;html=1;rounded=0;entryX=0;entryY=0.5;entryDx=0;entryDy=0;" edge="1" parent="1" target="yfiybu5PQQee1E7e1q2P-25">
          <mxGeometry width="50" height="50" relative="1" as="geometry">
            <mxPoint x="200" y="120" as="sourcePoint" />
            <mxPoint x="250" y="70" as="targetPoint" />
          </mxGeometry>
        </mxCell>
        <mxCell id="yfiybu5PQQee1E7e1q2P-28" value="" style="endArrow=none;html=1;rounded=0;entryX=0.008;entryY=0.367;entryDx=0;entryDy=0;entryPerimeter=0;" edge="1" parent="1" target="yfiybu5PQQee1E7e1q2P-3">
          <mxGeometry width="50" height="50" relative="1" as="geometry">
            <mxPoint x="400" y="120" as="sourcePoint" />
            <mxPoint x="550" y="120" as="targetPoint" />
          </mxGeometry>
        </mxCell>
        <mxCell id="yfiybu5PQQee1E7e1q2P-29" value="1" style="rounded=1;whiteSpace=wrap;html=1;" vertex="1" parent="1">
          <mxGeometry x="220" y="70" width="60" height="30" as="geometry" />
        </mxCell>
        <mxCell id="yfiybu5PQQee1E7e1q2P-30" value="N" style="rounded=1;whiteSpace=wrap;html=1;" vertex="1" parent="1">
          <mxGeometry x="210" y="140" width="60" height="30" as="geometry" />
        </mxCell>
        <mxCell id="yfiybu5PQQee1E7e1q2P-31" value="1" style="rounded=1;whiteSpace=wrap;html=1;" vertex="1" parent="1">
          <mxGeometry x="490" y="70" width="60" height="30" as="geometry" />
        </mxCell>
        <mxCell id="yfiybu5PQQee1E7e1q2P-33" value="N" style="rounded=1;whiteSpace=wrap;html=1;" vertex="1" parent="1">
          <mxGeometry x="480" y="140" width="60" height="30" as="geometry" />
        </mxCell>
        <mxCell id="yfiybu5PQQee1E7e1q2P-34" value="M:N" style="rounded=1;whiteSpace=wrap;html=1;" vertex="1" parent="1">
          <mxGeometry x="350" y="15" width="60" height="30" as="geometry" />
        </mxCell>
        <mxCell id="yfiybu5PQQee1E7e1q2P-35" value="Vende" style="rhombus;whiteSpace=wrap;html=1;" vertex="1" parent="1">
          <mxGeometry x="440" y="210" width="80" height="80" as="geometry" />
        </mxCell>
        <mxCell id="yfiybu5PQQee1E7e1q2P-36" value="" style="endArrow=none;html=1;rounded=0;entryX=0;entryY=0.5;entryDx=0;entryDy=0;" edge="1" parent="1" target="yfiybu5PQQee1E7e1q2P-35">
          <mxGeometry width="50" height="50" relative="1" as="geometry">
            <mxPoint x="360" y="330" as="sourcePoint" />
            <mxPoint x="410" y="280" as="targetPoint" />
          </mxGeometry>
        </mxCell>
        <mxCell id="yfiybu5PQQee1E7e1q2P-37" value="" style="endArrow=none;html=1;rounded=0;exitX=0.875;exitY=0.6;exitDx=0;exitDy=0;exitPerimeter=0;" edge="1" parent="1">
          <mxGeometry width="50" height="50" relative="1" as="geometry">
            <mxPoint x="520" y="248" as="sourcePoint" />
            <mxPoint x="610" y="160" as="targetPoint" />
          </mxGeometry>
        </mxCell>
        <mxCell id="yfiybu5PQQee1E7e1q2P-38" value="&lt;u&gt;Nombre&lt;/u&gt;" style="ellipse;whiteSpace=wrap;html=1;" vertex="1" parent="1">
          <mxGeometry x="380" y="460" width="90" height="60" as="geometry" />
        </mxCell>
        <mxCell id="yfiybu5PQQee1E7e1q2P-39" value="Direcci칩n" style="ellipse;whiteSpace=wrap;html=1;" vertex="1" parent="1">
          <mxGeometry x="480" y="460" width="90" height="60" as="geometry" />
        </mxCell>
        <mxCell id="yfiybu5PQQee1E7e1q2P-40" value="" style="endArrow=none;html=1;rounded=0;entryX=0.25;entryY=1;entryDx=0;entryDy=0;" edge="1" parent="1">
          <mxGeometry width="50" height="50" relative="1" as="geometry">
            <mxPoint x="310" y="460" as="sourcePoint" />
            <mxPoint x="360" y="390" as="targetPoint" />
          </mxGeometry>
        </mxCell>
        <mxCell id="yfiybu5PQQee1E7e1q2P-41" value="" style="endArrow=none;html=1;rounded=0;entryX=0.833;entryY=1;entryDx=0;entryDy=0;entryPerimeter=0;" edge="1" parent="1">
          <mxGeometry width="50" height="50" relative="1" as="geometry">
            <mxPoint x="490" y="470" as="sourcePoint" />
            <mxPoint x="440" y="390" as="targetPoint" />
          </mxGeometry>
        </mxCell>
        <mxCell id="yfiybu5PQQee1E7e1q2P-42" value="&lt;u&gt;Id&lt;/u&gt;" style="ellipse;whiteSpace=wrap;html=1;" vertex="1" parent="1">
          <mxGeometry x="260" y="460" width="90" height="60" as="geometry" />
        </mxCell>
        <mxCell id="yfiybu5PQQee1E7e1q2P-43" value="1" style="rounded=1;whiteSpace=wrap;html=1;" vertex="1" parent="1">
          <mxGeometry x="340" y="260" width="60" height="30" as="geometry" />
        </mxCell>
        <mxCell id="yfiybu5PQQee1E7e1q2P-44" value="N" style="rounded=1;whiteSpace=wrap;html=1;" vertex="1" parent="1">
          <mxGeometry x="600" y="170" width="30" height="20" as="geometry" />
        </mxCell>
        <mxCell id="yfiybu5PQQee1E7e1q2P-45" value="" style="endArrow=none;html=1;rounded=0;exitX=0.267;exitY=0.067;exitDx=0;exitDy=0;exitPerimeter=0;" edge="1" parent="1" source="yfiybu5PQQee1E7e1q2P-38">
          <mxGeometry width="50" height="50" relative="1" as="geometry">
            <mxPoint x="350" y="440" as="sourcePoint" />
            <mxPoint x="400" y="390" as="targetPoint" />
          </mxGeometry>
        </mxCell>
        <mxCell id="yfiybu5PQQee1E7e1q2P-47" value="1" style="rounded=1;whiteSpace=wrap;html=1;" vertex="1" parent="1">
          <mxGeometry x="396" y="300" width="36" height="20" as="geometry" />
        </mxCell>
        <mxCell id="yfiybu5PQQee1E7e1q2P-48" value="1" style="rounded=1;whiteSpace=wrap;html=1;" vertex="1" parent="1">
          <mxGeometry x="560" y="140" width="40" height="20" as="geometry" />
        </mxCell>
        <mxCell id="yfiybu5PQQee1E7e1q2P-52" value="N:1" style="rounded=1;whiteSpace=wrap;html=1;" vertex="1" parent="1">
          <mxGeometry x="410" y="190" width="60" height="30" as="geometry" />
        </mxCell>
      </root>
    </mxGraphModel>
  </diagram>
</mxfile>
